Coordinates
version=1
nRows=29
nColumns=24
inDegrees=yes

Units are S.I. units (second, meters, Newtons, ...)
Angles are in degrees.

endheader
time	pelvis_tilt	pelvis_list	pelvis_rotation	pelvis_tx	pelvis_ty	pelvis_tz	hip_flexion_r	hip_adduction_r	hip_rotation_r	knee_angle_r	ankle_angle_r	subtalar_angle_r	mtp_angle_r	hip_flexion_l	hip_adduction_l	hip_rotation_l	knee_angle_l	ankle_angle_l	subtalar_angle_l	mtp_angle_l	lumbar_extension	lumbar_bending	lumbar_rotation
      0.88300000	     -2.27757639	     -2.37283564	     -1.32707906	     -0.23904328	      1.05193141	      0.34207743	     -4.54138259	      7.74474276	      2.96159227	    -13.60167310	     11.88676335	    -11.99313292	      2.30727813	     24.20330239	     -1.13626307	     -3.49777162	     -1.61838889	      1.38518728	     -1.92215443	      4.09867191	      3.31692754	      6.60072647	      2.67249081
      0.88716667	     -2.24668503	     -2.36522114	     -1.31277019	     -0.23303368	      1.05135704	      0.34187481	     -4.68983348	      7.71707632	      2.79780270	    -14.10100229	     12.12610177	    -11.69710526	      2.27348264	     24.08105127	     -1.05979598	     -3.59559177	     -1.55717784	      1.35612121	     -1.31381438	      3.88433465	      3.30655751	      6.58438733	      2.70926958
      0.89133333	     -2.24599885	     -2.38271696	     -1.35534511	     -0.22710482	      1.05075706	      0.34173886	     -4.77787994	      7.71124160	      2.72452372	    -14.63978330	     12.09852332	    -11.69942038	      2.27084349	     23.98220874	     -1.03513361	     -3.57933161	     -1.55710758	      1.35799912	     -1.25021610	      3.86743176	      3.37307681	      6.59500384	      2.71128488
      0.89550000	     -2.24019769	     -2.38281488	     -1.40608144	     -0.22109719	      1.05020142	      0.34158150	     -4.84976373	      7.67669453	      2.59899253	    -15.22831449	     12.07323908	    -11.65909049	      2.26954283	     23.86574565	     -0.99230486	     -3.55021289	     -1.61067904	      1.33811641	     -1.13505301	      3.84925861	      3.42833001	      6.60472548	      2.71689149
      0.89966667	     -2.18473584	     -2.36624204	     -1.30839831	     -0.21496756	      1.04970600	      0.34117000	     -4.96784030	      7.62349227	      2.20631364	    -15.82753389	     12.12800099	    -11.10010023	      2.27286455	     23.73295378	     -0.86258213	     -3.57730997	     -1.77612043	      1.26132022	     -0.57792411	      3.74921396	      3.41235640	      6.61293075	      2.76934263
      0.90383333	     -2.16629811	     -2.36247654	     -1.39080535	     -0.20896208	      1.04922224	      0.34109086	     -5.01524781	      7.57758391	      2.15688331	    -16.49598167	     12.09446322	    -11.07357583	      2.27390698	     23.58962296	     -0.83509288	     -3.49903380	     -1.92907798	      1.24386395	     -0.49641721	      3.73841450	      3.46515758	      6.59887095	      2.77279368
      0.90800000	     -2.11075839	     -2.33541942	     -1.36137134	     -0.20283491	      1.04879913	      0.34074761	     -5.07742737	      7.49471993	      1.80741108	    -17.20704758	     12.06426593	    -10.51401472	      2.29217169	     23.43111086	     -0.72144585	     -3.48927471	     -2.16369313	      1.12355334	     -0.11698266	      3.66632417	      3.40045437	      6.58534408	      2.81664639
      0.91216667	     -2.09610221	     -2.28336095	     -1.45117705	     -0.19667878	      1.04839017	      0.34059236	     -5.07133880	      7.37392299	      1.66038634	    -17.98158472	     12.01730529	    -10.37911113	      2.30135290	     23.26131741	     -0.63507608	     -3.39896529	     -2.36307326	      1.06263620	      0.00750872	      3.64382084	      3.41449356	      6.57232471	      2.82740516
      0.91633333	     -2.02627721	     -2.26813990	     -1.40974373	     -0.19059710	      1.04802637	      0.34028536	     -5.09848279	      7.30043948	      1.33590400	    -18.78046536	     11.89265879	     -9.81712143	      2.33628864	     23.08428557	     -0.53821202	     -3.31986877	     -2.66341300	      0.84105107	      0.20652761	      3.59311513	      3.41997207	      6.51601252	      2.88345824
      0.92050000	     -1.96223849	     -2.21408800	     -1.43578201	     -0.18444946	      1.04772433	      0.34000733	     -5.08900267	      7.16625007	      1.05575684	    -19.65004586	     11.78306784	     -9.37680767	      2.38137116	     22.87017566	     -0.41896273	     -3.20994549	     -2.92866406	      0.65028557	      0.26699529	      3.55078848	      3.39054552	      6.46716944	      2.92214719
      0.92466667	     -1.90095364	     -2.17805681	     -1.51211944	     -0.17839158	      1.04745076	      0.33994961	     -5.04200963	      7.06116130	      0.91733780	    -20.58583772	     11.68148679	     -9.33280009	      2.38912920	     22.65323216	     -0.35734960	     -3.11387665	     -3.21334201	      0.57525079	      0.31559695	      3.54697528	      3.45550685	      6.42461743	      2.93176791
      0.92883333	     -1.87113288	     -2.09990199	     -1.46439938	     -0.17214372	      1.04715147	      0.33947428	     -4.93594175	      6.88215623	      0.46687951	    -21.54760281	     11.28932592	     -8.67143331	      2.44881044	     22.47535835	     -0.17357296	     -2.97678295	     -3.51046095	      0.15274105	      0.28422177	      3.52413785	      3.40049655	      6.32155330	      2.98616030
      0.93300000	     -1.79440944	     -1.98824516	     -1.51629781	     -0.16592033	      1.04699956	      0.33902166	     -4.84072193	      6.63635192	      0.14501537	    -22.60191767	     11.11349170	     -7.96056508	      2.58466569	     22.18142254	      0.01553237	     -2.65279890	     -3.70883035	     -0.24921044	     -0.08612581	      3.50001588	      3.41200539	      6.30130259	      3.02629866
      0.93716667	     -1.73706713	     -1.89979228	     -1.52134958	     -0.15978658	      1.04682117	      0.33865824	     -4.68422021	      6.43440777	     -0.20626997	    -23.70954056	     10.76112051	     -7.53834880	      2.71368784	     21.95049815	      0.18182294	     -2.45595465	     -3.98510875	     -0.60462773	     -0.37238067	      3.49226514	      3.39350452	      6.19002076	      3.05613578
      0.94133333	     -1.70198785	     -1.78795821	     -1.55490453	     -0.15362426	      1.04665283	      0.33839740	     -4.46662348	      6.20658625	     -0.52614021	    -24.89539798	     10.50310695	     -7.39759096	      2.75221519	     21.74292398	      0.35541860	     -2.39315899	     -4.28662787	     -0.77087950	     -0.42033710	      3.49315368	      3.34174119	      6.08483996	      3.06559021
      0.94550000	     -1.62534495	     -1.66765066	     -1.55595296	     -0.14747281	      1.04659295	      0.33791339	     -4.26081818	      5.93956394	     -0.88716290	    -26.10595313	      9.86065498	     -6.67392798	      2.93757868	     21.45840699	      0.56432985	     -2.03894545	     -4.50375650	     -1.36253132	     -1.00250028	      3.50166828	      3.43454528	      5.99114768	      3.09400584
      0.94966667	     -1.59083442	     -1.53484626	     -1.57086461	     -0.14138982	      1.04648859	      0.33761941	     -3.95713840	      5.67517309	     -1.23424160	    -27.43232140	      9.57460524	     -6.54848260	      2.98046629	     21.26036235	      0.76282474	     -1.97335053	     -4.82470341	     -1.51384015	     -1.08002066	      3.50655190	      3.32665483	      5.83216475	      3.10242112
      0.95383333	     -1.52050535	     -1.38004696	     -1.57017868	     -0.13526270	      1.04648898	      0.33705711	     -3.66273731	      5.34705728	     -1.60343937	    -28.76635902	      8.70506360	     -5.82391732	      3.20497283	     20.97807865	      1.01086911	     -1.58849188	     -5.03986542	     -2.13210563	     -1.86911041	      3.52852123	      3.44571398	      5.69862742	      3.11962343
      0.95800000	     -1.49831737	     -1.22436076	     -1.56299370	     -0.12923829	      1.04643344	      0.33652122	     -3.26272464	      5.01988302	     -1.97396415	    -30.20297625	      8.06277609	     -5.39968767	      3.47148573	     20.77539860	      1.25545888	     -1.26958543	     -5.31412886	     -2.56122782	     -2.57022945	      3.56518194	      3.43081408	      5.49729604	      3.11873740
      0.96216667	     -1.43313435	     -1.04770304	     -1.56083846	     -0.12324100	      1.04647102	      0.33603938	     -2.87183674	      4.66566592	     -2.31931849	    -31.69187463	      7.36806843	     -5.04826861	      3.73302291	     20.53352320	      1.51210441	     -1.02854492	     -5.60458882	     -2.90594261	     -3.06887091	      3.60515163	      3.40137904	      5.30905017	      3.10791129
      0.96633333	     -1.38190262	     -0.85078622	     -1.56287066	     -0.11726426	      1.04652080	      0.33556379	     -2.42690794	      4.28241120	     -2.64553927	    -33.23432068	      6.58892809	     -4.71692606	      3.99654315	     20.31245416	      1.78293124	     -0.81051274	     -5.91001482	     -3.20964914	     -3.54127832	      3.64573442	      3.38663024	      5.08609939	      3.10158414
      0.97050000	     -1.33692157	     -0.67561853	     -1.56069459	     -0.11150393	      1.04655562	      0.33520051	     -1.91955609	      3.93578595	     -2.91613522	    -34.85562059	      5.89350022	     -4.48351643	      4.14479334	     20.13243047	      2.01312637	     -0.61045890	     -6.27044608	     -3.39753833	     -3.77981740	      3.66875751	      3.24285182	      4.78019281	      3.10615639
      0.97466667	     -1.27146640	     -0.42540080	     -1.56434026	     -0.10545077	      1.04670558	      0.33462934	     -1.42980622	      3.46971892	     -3.22426310	    -36.46400363	      4.84987025	     -4.16991616	      4.39225986	     19.88904206	      2.34422607	     -0.43911854	     -6.57378505	     -3.65814048	     -4.31709187	      3.70309506	      3.32900267	      4.60807121	      3.08897973
      0.97883333	     -1.22028226	     -0.21628477	     -1.57778008	     -0.09980079	      1.04678914	      0.33422286	     -0.85157401	      3.06939468	     -3.43510928	    -38.18217995	      4.14154483	     -4.00946745	      4.52614841	     19.70748442	      2.59991427	     -0.21405729	     -6.94132081	     -3.79504958	     -4.51780398	      3.72288893	      3.15616959	      4.27774917	      3.08712941
      0.98300000	     -1.15480558	      0.03733864	     -1.59289385	     -0.09401220	      1.04693922	      0.33372805	     -0.27461461	      2.60202965	     -3.65060834	    -39.89191630	      3.13834675	     -3.79659700	      4.67402262	     19.49534257	      2.91123208	     -0.05694387	     -7.29235313	     -3.91118836	     -4.81767820	      3.74321923	      3.08352838	      3.98574174	      3.07454135
      0.98716667	     -1.12945530	      0.33350137	     -1.61966380	     -0.08806459	      1.04707842	      0.33309356	      0.35953719	      2.06820031	     -3.85276105	    -41.59956463	      1.95728249	     -3.79848643	      5.11570666	     19.29528325	      3.27677851	      0.15181958	     -7.58805491	     -4.18751166	     -5.54898149	      3.79687665	      3.26077713	      3.83319827	      3.00993207
      0.99133333	     -1.07531321	      0.60626127	     -1.62491166	     -0.08237345	      1.04723429	      0.33261077	      1.00453542	      1.58353086	     -4.00872635	    -43.34447771	      0.96706237	     -3.72656433	      5.51113511	     19.11163987	      3.59956008	      0.24280573	     -7.96402458	     -4.23717751	     -5.78931315	      3.85110606	      3.19561051	      3.50133268	      2.97489434
      0.99550000	     -0.99066225	      0.88074837	     -1.59255951	     -0.07671674	      1.04744080	      0.33216625	      1.62868947	      1.10700730	     -4.16453791	    -45.07878114	      0.03105728	     -3.66068272	      5.71958834	     18.91138692	      3.92447848	      0.23774847	     -8.37096660	     -4.19847513	     -5.90560538	      3.88112773	      3.07572603	      3.11046861	      2.96755266
      0.99966667	     -0.89856955	      1.15712552	     -1.60641955	     -0.07122663	      1.04766021	      0.33172748	      2.28690711	      0.62620715	     -4.23154163	    -46.85139480	     -0.68526881	     -3.66147194	      5.82475915	     18.68736822	      4.23369464	      0.36264217	     -8.72666098	     -4.17929403	     -5.90180715	      3.89810044	      2.87601515	      2.78809158	      2.95215963
